<mxfile host="app.diagrams.net" modified="2023-06-15T02:19:15.424Z" agent="5.0 (Windows NT 10.0; Win64; x64) AppleWebKit/537.36 (KHTML, like Gecko) Chrome/114.0.0.0 Safari/537.36" etag="xJwkHFdcVIKGToB7DS_K" version="20.8.19" type="github">
  <diagram name="第 1 页" id="-a2cajlcUVzWi9H27ka_">
    <mxGraphModel dx="2265" dy="764" grid="1" gridSize="10" guides="1" tooltips="1" connect="1" arrows="1" fold="1" page="1" pageScale="1" pageWidth="827" pageHeight="1169" math="0" shadow="0">
      <root>
        <mxCell id="0" />
        <mxCell id="1" parent="0" />
        <mxCell id="5XkQjtwtMUVPwkuHvZPp-11" value="" style="whiteSpace=wrap;html=1;aspect=fixed;" vertex="1" parent="1">
          <mxGeometry x="280" y="90" width="170" height="170" as="geometry" />
        </mxCell>
        <mxCell id="5XkQjtwtMUVPwkuHvZPp-12" value="运营商A" style="text;html=1;strokeColor=none;fillColor=none;align=center;verticalAlign=middle;whiteSpace=wrap;rounded=0;" vertex="1" parent="1">
          <mxGeometry x="305" y="55" width="60" height="30" as="geometry" />
        </mxCell>
        <mxCell id="5XkQjtwtMUVPwkuHvZPp-13" value="" style="endArrow=none;dashed=1;html=1;dashPattern=1 3;strokeWidth=2;rounded=0;" edge="1" parent="1">
          <mxGeometry width="50" height="50" relative="1" as="geometry">
            <mxPoint x="60" y="760" as="sourcePoint" />
            <mxPoint x="60" y="10" as="targetPoint" />
          </mxGeometry>
        </mxCell>
        <mxCell id="5XkQjtwtMUVPwkuHvZPp-17" value="&lt;font style=&quot;font-size: 20px;&quot;&gt;学校内网&lt;/font&gt;" style="text;html=1;strokeColor=none;fillColor=none;align=center;verticalAlign=middle;whiteSpace=wrap;rounded=0;" vertex="1" parent="1">
          <mxGeometry x="-190" y="10" width="120" height="30" as="geometry" />
        </mxCell>
        <mxCell id="5XkQjtwtMUVPwkuHvZPp-54" value="" style="edgeStyle=orthogonalEdgeStyle;rounded=0;orthogonalLoop=1;jettySize=auto;html=1;" edge="1" parent="1" source="5XkQjtwtMUVPwkuHvZPp-22" target="5XkQjtwtMUVPwkuHvZPp-53">
          <mxGeometry relative="1" as="geometry" />
        </mxCell>
        <mxCell id="5XkQjtwtMUVPwkuHvZPp-22" value="nginx" style="rounded=0;whiteSpace=wrap;html=1;" vertex="1" parent="1">
          <mxGeometry x="375" y="105" width="65" height="40" as="geometry" />
        </mxCell>
        <mxCell id="5XkQjtwtMUVPwkuHvZPp-55" value="" style="edgeStyle=orthogonalEdgeStyle;rounded=0;orthogonalLoop=1;jettySize=auto;html=1;" edge="1" parent="1" source="5XkQjtwtMUVPwkuHvZPp-23" target="5XkQjtwtMUVPwkuHvZPp-53">
          <mxGeometry relative="1" as="geometry" />
        </mxCell>
        <mxCell id="5XkQjtwtMUVPwkuHvZPp-23" value="nginx" style="rounded=0;whiteSpace=wrap;html=1;" vertex="1" parent="1">
          <mxGeometry x="375" y="150" width="65" height="40" as="geometry" />
        </mxCell>
        <mxCell id="5XkQjtwtMUVPwkuHvZPp-56" value="" style="edgeStyle=orthogonalEdgeStyle;rounded=0;orthogonalLoop=1;jettySize=auto;html=1;" edge="1" parent="1" source="5XkQjtwtMUVPwkuHvZPp-24" target="5XkQjtwtMUVPwkuHvZPp-53">
          <mxGeometry relative="1" as="geometry" />
        </mxCell>
        <mxCell id="5XkQjtwtMUVPwkuHvZPp-24" value="nginx" style="rounded=0;whiteSpace=wrap;html=1;" vertex="1" parent="1">
          <mxGeometry x="375" y="200" width="65" height="40" as="geometry" />
        </mxCell>
        <mxCell id="5XkQjtwtMUVPwkuHvZPp-36" value="DNS" style="html=1;outlineConnect=0;fillColor=#CCCCCC;strokeColor=#6881B3;gradientColor=none;gradientDirection=north;strokeWidth=2;shape=mxgraph.networks.cloud;fontColor=#ffffff;" vertex="1" parent="1">
          <mxGeometry x="-90" y="145" width="90" height="50" as="geometry" />
        </mxCell>
        <mxCell id="5XkQjtwtMUVPwkuHvZPp-39" value="" style="endArrow=classic;startArrow=classic;html=1;rounded=0;entryX=0;entryY=0.5;entryDx=0;entryDy=0;" edge="1" parent="1" source="5XkQjtwtMUVPwkuHvZPp-36" target="5XkQjtwtMUVPwkuHvZPp-11">
          <mxGeometry width="50" height="50" relative="1" as="geometry">
            <mxPoint x="60" y="410" as="sourcePoint" />
            <mxPoint x="110" y="360" as="targetPoint" />
          </mxGeometry>
        </mxCell>
        <mxCell id="5XkQjtwtMUVPwkuHvZPp-42" value="vpn" style="text;html=1;strokeColor=none;fillColor=none;align=center;verticalAlign=middle;whiteSpace=wrap;rounded=0;" vertex="1" parent="1">
          <mxGeometry x="130" y="140" width="60" height="30" as="geometry" />
        </mxCell>
        <mxCell id="5XkQjtwtMUVPwkuHvZPp-98" style="edgeStyle=orthogonalEdgeStyle;rounded=0;orthogonalLoop=1;jettySize=auto;html=1;fontSize=20;" edge="1" parent="1" source="5XkQjtwtMUVPwkuHvZPp-49">
          <mxGeometry relative="1" as="geometry">
            <mxPoint x="1080" y="230" as="targetPoint" />
          </mxGeometry>
        </mxCell>
        <mxCell id="5XkQjtwtMUVPwkuHvZPp-49" value="" style="rounded=0;whiteSpace=wrap;html=1;" vertex="1" parent="1">
          <mxGeometry x="635" y="274" width="290" height="291" as="geometry" />
        </mxCell>
        <mxCell id="5XkQjtwtMUVPwkuHvZPp-50" value="" style="endArrow=none;dashed=1;html=1;dashPattern=1 3;strokeWidth=2;rounded=0;" edge="1" parent="1">
          <mxGeometry width="50" height="50" relative="1" as="geometry">
            <mxPoint x="550" y="810" as="sourcePoint" />
            <mxPoint x="550" y="10" as="targetPoint" />
          </mxGeometry>
        </mxCell>
        <mxCell id="5XkQjtwtMUVPwkuHvZPp-51" value="政务网" style="text;html=1;strokeColor=none;fillColor=none;align=center;verticalAlign=middle;whiteSpace=wrap;rounded=0;" vertex="1" parent="1">
          <mxGeometry x="750" y="220" width="60" height="30" as="geometry" />
        </mxCell>
        <mxCell id="5XkQjtwtMUVPwkuHvZPp-52" value="&lt;font style=&quot;font-size: 20px;&quot;&gt;外网&lt;/font&gt;" style="text;html=1;strokeColor=none;fillColor=none;align=center;verticalAlign=middle;whiteSpace=wrap;rounded=0;" vertex="1" parent="1">
          <mxGeometry x="670" width="300" height="70" as="geometry" />
        </mxCell>
        <mxCell id="5XkQjtwtMUVPwkuHvZPp-53" value="vip" style="rounded=0;whiteSpace=wrap;html=1;" vertex="1" parent="1">
          <mxGeometry x="280" y="112" width="30" height="116" as="geometry" />
        </mxCell>
        <mxCell id="5XkQjtwtMUVPwkuHvZPp-77" value="" style="endArrow=classic;startArrow=classic;html=1;rounded=0;exitX=1;exitY=0.5;exitDx=0;exitDy=0;entryX=0;entryY=0.5;entryDx=0;entryDy=0;" edge="1" parent="1" source="5XkQjtwtMUVPwkuHvZPp-11" target="5XkQjtwtMUVPwkuHvZPp-92">
          <mxGeometry width="50" height="50" relative="1" as="geometry">
            <mxPoint x="580" y="430" as="sourcePoint" />
            <mxPoint x="630" y="380" as="targetPoint" />
          </mxGeometry>
        </mxCell>
        <mxCell id="5XkQjtwtMUVPwkuHvZPp-78" value="" style="endArrow=classic;startArrow=classic;html=1;rounded=0;exitX=1;exitY=0.5;exitDx=0;exitDy=0;entryX=0;entryY=0.5;entryDx=0;entryDy=0;" edge="1" parent="1" source="5XkQjtwtMUVPwkuHvZPp-118" target="5XkQjtwtMUVPwkuHvZPp-92">
          <mxGeometry width="50" height="50" relative="1" as="geometry">
            <mxPoint x="461.02" y="394.03" as="sourcePoint" />
            <mxPoint x="630" y="390" as="targetPoint" />
          </mxGeometry>
        </mxCell>
        <mxCell id="5XkQjtwtMUVPwkuHvZPp-80" value="" style="fontColor=#0066CC;verticalAlign=top;verticalLabelPosition=bottom;labelPosition=center;align=center;html=1;outlineConnect=0;fillColor=#CCCCCC;strokeColor=#6881B3;gradientColor=none;gradientDirection=north;strokeWidth=2;shape=mxgraph.networks.server;" vertex="1" parent="1">
          <mxGeometry x="770" y="328.5" width="60" height="40" as="geometry" />
        </mxCell>
        <mxCell id="5XkQjtwtMUVPwkuHvZPp-81" value="" style="fontColor=#0066CC;verticalAlign=top;verticalLabelPosition=bottom;labelPosition=center;align=center;html=1;outlineConnect=0;fillColor=#CCCCCC;strokeColor=#6881B3;gradientColor=none;gradientDirection=north;strokeWidth=2;shape=mxgraph.networks.server;" vertex="1" parent="1">
          <mxGeometry x="770" y="378.5" width="60" height="40" as="geometry" />
        </mxCell>
        <mxCell id="5XkQjtwtMUVPwkuHvZPp-82" value="" style="fontColor=#0066CC;verticalAlign=top;verticalLabelPosition=bottom;labelPosition=center;align=center;html=1;outlineConnect=0;fillColor=#CCCCCC;strokeColor=#6881B3;gradientColor=none;gradientDirection=north;strokeWidth=2;shape=mxgraph.networks.server;" vertex="1" parent="1">
          <mxGeometry x="770" y="428.5" width="60" height="40" as="geometry" />
        </mxCell>
        <mxCell id="5XkQjtwtMUVPwkuHvZPp-83" value="server1" style="text;html=1;strokeColor=none;fillColor=none;align=center;verticalAlign=middle;whiteSpace=wrap;rounded=0;" vertex="1" parent="1">
          <mxGeometry x="840" y="333.5" width="60" height="30" as="geometry" />
        </mxCell>
        <mxCell id="5XkQjtwtMUVPwkuHvZPp-84" value="server3" style="text;html=1;strokeColor=none;fillColor=none;align=center;verticalAlign=middle;whiteSpace=wrap;rounded=0;" vertex="1" parent="1">
          <mxGeometry x="840" y="428.5" width="60" height="30" as="geometry" />
        </mxCell>
        <mxCell id="5XkQjtwtMUVPwkuHvZPp-85" value="server2" style="text;html=1;strokeColor=none;fillColor=none;align=center;verticalAlign=middle;whiteSpace=wrap;rounded=0;" vertex="1" parent="1">
          <mxGeometry x="840" y="383.5" width="60" height="30" as="geometry" />
        </mxCell>
        <mxCell id="5XkQjtwtMUVPwkuHvZPp-100" style="edgeStyle=orthogonalEdgeStyle;rounded=0;orthogonalLoop=1;jettySize=auto;html=1;entryX=0.06;entryY=0.5;entryDx=0;entryDy=0;entryPerimeter=0;fontSize=20;" edge="1" parent="1" target="5XkQjtwtMUVPwkuHvZPp-36">
          <mxGeometry relative="1" as="geometry">
            <mxPoint x="-263" y="170" as="sourcePoint" />
          </mxGeometry>
        </mxCell>
        <mxCell id="5XkQjtwtMUVPwkuHvZPp-110" style="edgeStyle=orthogonalEdgeStyle;rounded=0;orthogonalLoop=1;jettySize=auto;html=1;fontSize=20;" edge="1" parent="1" source="5XkQjtwtMUVPwkuHvZPp-92" target="5XkQjtwtMUVPwkuHvZPp-80">
          <mxGeometry relative="1" as="geometry">
            <Array as="points">
              <mxPoint x="728" y="410" />
              <mxPoint x="728" y="349" />
            </Array>
          </mxGeometry>
        </mxCell>
        <mxCell id="5XkQjtwtMUVPwkuHvZPp-113" style="edgeStyle=orthogonalEdgeStyle;rounded=0;orthogonalLoop=1;jettySize=auto;html=1;exitX=1;exitY=0.5;exitDx=0;exitDy=0;fontSize=20;" edge="1" parent="1" source="5XkQjtwtMUVPwkuHvZPp-92" target="5XkQjtwtMUVPwkuHvZPp-82">
          <mxGeometry relative="1" as="geometry" />
        </mxCell>
        <mxCell id="5XkQjtwtMUVPwkuHvZPp-114" style="edgeStyle=orthogonalEdgeStyle;rounded=0;orthogonalLoop=1;jettySize=auto;html=1;fontSize=20;" edge="1" parent="1" source="5XkQjtwtMUVPwkuHvZPp-92" target="5XkQjtwtMUVPwkuHvZPp-81">
          <mxGeometry relative="1" as="geometry" />
        </mxCell>
        <mxCell id="5XkQjtwtMUVPwkuHvZPp-92" value="slb" style="rounded=0;whiteSpace=wrap;html=1;fontSize=20;" vertex="1" parent="1">
          <mxGeometry x="635" y="295" width="50" height="230" as="geometry" />
        </mxCell>
        <mxCell id="5XkQjtwtMUVPwkuHvZPp-96" style="edgeStyle=orthogonalEdgeStyle;rounded=0;orthogonalLoop=1;jettySize=auto;html=1;fontSize=20;" edge="1" parent="1" source="5XkQjtwtMUVPwkuHvZPp-93" target="5XkQjtwtMUVPwkuHvZPp-49">
          <mxGeometry relative="1" as="geometry" />
        </mxCell>
        <mxCell id="5XkQjtwtMUVPwkuHvZPp-93" value="钉钉" style="rounded=0;whiteSpace=wrap;html=1;fontSize=20;" vertex="1" parent="1">
          <mxGeometry x="1010" y="155" width="120" height="60" as="geometry" />
        </mxCell>
        <mxCell id="5XkQjtwtMUVPwkuHvZPp-97" value="回调" style="text;html=1;align=center;verticalAlign=middle;resizable=0;points=[];autosize=1;strokeColor=none;fillColor=none;fontSize=20;" vertex="1" parent="1">
          <mxGeometry x="860" y="130" width="60" height="40" as="geometry" />
        </mxCell>
        <mxCell id="5XkQjtwtMUVPwkuHvZPp-99" value="开放接口" style="text;html=1;align=center;verticalAlign=middle;resizable=0;points=[];autosize=1;strokeColor=none;fillColor=none;fontSize=20;" vertex="1" parent="1">
          <mxGeometry x="980" y="370" width="100" height="40" as="geometry" />
        </mxCell>
        <mxCell id="5XkQjtwtMUVPwkuHvZPp-101" value="DNS" style="html=1;outlineConnect=0;fillColor=#CCCCCC;strokeColor=#6881B3;gradientColor=none;gradientDirection=north;strokeWidth=2;shape=mxgraph.networks.cloud;fontColor=#ffffff;" vertex="1" parent="1">
          <mxGeometry x="-90" y="318.5" width="90" height="50" as="geometry" />
        </mxCell>
        <mxCell id="5XkQjtwtMUVPwkuHvZPp-102" style="edgeStyle=orthogonalEdgeStyle;rounded=0;orthogonalLoop=1;jettySize=auto;html=1;entryX=0.06;entryY=0.5;entryDx=0;entryDy=0;entryPerimeter=0;fontSize=20;" edge="1" parent="1" target="5XkQjtwtMUVPwkuHvZPp-101">
          <mxGeometry relative="1" as="geometry">
            <mxPoint x="-263" y="343.5" as="sourcePoint" />
          </mxGeometry>
        </mxCell>
        <mxCell id="5XkQjtwtMUVPwkuHvZPp-104" value="DNS" style="html=1;outlineConnect=0;fillColor=#CCCCCC;strokeColor=#6881B3;gradientColor=none;gradientDirection=north;strokeWidth=2;shape=mxgraph.networks.cloud;fontColor=#ffffff;" vertex="1" parent="1">
          <mxGeometry x="-90" y="497.5" width="90" height="50" as="geometry" />
        </mxCell>
        <mxCell id="5XkQjtwtMUVPwkuHvZPp-105" style="edgeStyle=orthogonalEdgeStyle;rounded=0;orthogonalLoop=1;jettySize=auto;html=1;entryX=0.06;entryY=0.5;entryDx=0;entryDy=0;entryPerimeter=0;fontSize=20;" edge="1" parent="1" target="5XkQjtwtMUVPwkuHvZPp-104">
          <mxGeometry relative="1" as="geometry">
            <mxPoint x="-263" y="522.5" as="sourcePoint" />
          </mxGeometry>
        </mxCell>
        <mxCell id="5XkQjtwtMUVPwkuHvZPp-107" value="" style="endArrow=none;html=1;rounded=0;fontSize=20;" edge="1" parent="1">
          <mxGeometry width="50" height="50" relative="1" as="geometry">
            <mxPoint x="-315" y="410" as="sourcePoint" />
            <mxPoint x="55" y="410" as="targetPoint" />
          </mxGeometry>
        </mxCell>
        <mxCell id="5XkQjtwtMUVPwkuHvZPp-108" value="" style="endArrow=none;html=1;rounded=0;fontSize=20;" edge="1" parent="1">
          <mxGeometry width="50" height="50" relative="1" as="geometry">
            <mxPoint x="-310" y="230" as="sourcePoint" />
            <mxPoint x="60" y="230" as="targetPoint" />
          </mxGeometry>
        </mxCell>
        <mxCell id="5XkQjtwtMUVPwkuHvZPp-109" value="" style="endArrow=none;dashed=1;html=1;rounded=0;fontSize=20;" edge="1" parent="1">
          <mxGeometry width="50" height="50" relative="1" as="geometry">
            <mxPoint x="-320" y="730" as="sourcePoint" />
            <mxPoint x="-320" y="10" as="targetPoint" />
          </mxGeometry>
        </mxCell>
        <mxCell id="5XkQjtwtMUVPwkuHvZPp-115" value="a.xxx.com&lt;br&gt;b.xxx.com&lt;br&gt;c.xxx.com" style="text;html=1;strokeColor=none;fillColor=none;align=center;verticalAlign=middle;whiteSpace=wrap;rounded=0;fontSize=20;" vertex="1" parent="1">
          <mxGeometry x="-60" y="80" width="60" height="30" as="geometry" />
        </mxCell>
        <mxCell id="5XkQjtwtMUVPwkuHvZPp-118" value="" style="whiteSpace=wrap;html=1;aspect=fixed;" vertex="1" parent="1">
          <mxGeometry x="280" y="532.5" width="170" height="170" as="geometry" />
        </mxCell>
        <mxCell id="5XkQjtwtMUVPwkuHvZPp-119" value="运营商B" style="text;html=1;strokeColor=none;fillColor=none;align=center;verticalAlign=middle;whiteSpace=wrap;rounded=0;" vertex="1" parent="1">
          <mxGeometry x="305" y="497.5" width="60" height="30" as="geometry" />
        </mxCell>
        <mxCell id="5XkQjtwtMUVPwkuHvZPp-120" value="" style="edgeStyle=orthogonalEdgeStyle;rounded=0;orthogonalLoop=1;jettySize=auto;html=1;" edge="1" parent="1" source="5XkQjtwtMUVPwkuHvZPp-121" target="5XkQjtwtMUVPwkuHvZPp-126">
          <mxGeometry relative="1" as="geometry" />
        </mxCell>
        <mxCell id="5XkQjtwtMUVPwkuHvZPp-121" value="nginx" style="rounded=0;whiteSpace=wrap;html=1;" vertex="1" parent="1">
          <mxGeometry x="375" y="547.5" width="65" height="40" as="geometry" />
        </mxCell>
        <mxCell id="5XkQjtwtMUVPwkuHvZPp-122" value="" style="edgeStyle=orthogonalEdgeStyle;rounded=0;orthogonalLoop=1;jettySize=auto;html=1;" edge="1" parent="1" source="5XkQjtwtMUVPwkuHvZPp-123" target="5XkQjtwtMUVPwkuHvZPp-126">
          <mxGeometry relative="1" as="geometry" />
        </mxCell>
        <mxCell id="5XkQjtwtMUVPwkuHvZPp-123" value="nginx" style="rounded=0;whiteSpace=wrap;html=1;" vertex="1" parent="1">
          <mxGeometry x="375" y="598.5" width="65" height="40" as="geometry" />
        </mxCell>
        <mxCell id="5XkQjtwtMUVPwkuHvZPp-124" value="" style="edgeStyle=orthogonalEdgeStyle;rounded=0;orthogonalLoop=1;jettySize=auto;html=1;" edge="1" parent="1" source="5XkQjtwtMUVPwkuHvZPp-125" target="5XkQjtwtMUVPwkuHvZPp-126">
          <mxGeometry relative="1" as="geometry" />
        </mxCell>
        <mxCell id="5XkQjtwtMUVPwkuHvZPp-125" value="nginx" style="rounded=0;whiteSpace=wrap;html=1;" vertex="1" parent="1">
          <mxGeometry x="375" y="650" width="65" height="40" as="geometry" />
        </mxCell>
        <mxCell id="5XkQjtwtMUVPwkuHvZPp-126" value="vip" style="rounded=0;whiteSpace=wrap;html=1;" vertex="1" parent="1">
          <mxGeometry x="280" y="559.5" width="30" height="116" as="geometry" />
        </mxCell>
        <mxCell id="5XkQjtwtMUVPwkuHvZPp-141" value="DNS" style="html=1;outlineConnect=0;fillColor=#CCCCCC;strokeColor=#6881B3;gradientColor=none;gradientDirection=north;strokeWidth=2;shape=mxgraph.networks.cloud;fontColor=#ffffff;" vertex="1" parent="1">
          <mxGeometry x="-90" y="667.5" width="90" height="50" as="geometry" />
        </mxCell>
        <mxCell id="5XkQjtwtMUVPwkuHvZPp-142" style="edgeStyle=orthogonalEdgeStyle;rounded=0;orthogonalLoop=1;jettySize=auto;html=1;entryX=0.06;entryY=0.5;entryDx=0;entryDy=0;entryPerimeter=0;fontSize=20;" edge="1" parent="1" target="5XkQjtwtMUVPwkuHvZPp-141">
          <mxGeometry relative="1" as="geometry">
            <mxPoint x="-263" y="692.5" as="sourcePoint" />
          </mxGeometry>
        </mxCell>
        <mxCell id="5XkQjtwtMUVPwkuHvZPp-144" value="" style="endArrow=none;html=1;rounded=0;fontSize=20;" edge="1" parent="1">
          <mxGeometry width="50" height="50" relative="1" as="geometry">
            <mxPoint x="-315" y="580" as="sourcePoint" />
            <mxPoint x="55" y="580" as="targetPoint" />
          </mxGeometry>
        </mxCell>
        <mxCell id="5XkQjtwtMUVPwkuHvZPp-146" value="" style="endArrow=classic;startArrow=classic;html=1;rounded=0;fontSize=20;" edge="1" parent="1" target="5XkQjtwtMUVPwkuHvZPp-53">
          <mxGeometry width="50" height="50" relative="1" as="geometry">
            <mxPoint y="350" as="sourcePoint" />
            <mxPoint x="270" y="180" as="targetPoint" />
          </mxGeometry>
        </mxCell>
        <mxCell id="5XkQjtwtMUVPwkuHvZPp-147" value="vpn" style="text;html=1;strokeColor=none;fillColor=none;align=center;verticalAlign=middle;whiteSpace=wrap;rounded=0;" vertex="1" parent="1">
          <mxGeometry x="120" y="230" width="60" height="30" as="geometry" />
        </mxCell>
        <mxCell id="5XkQjtwtMUVPwkuHvZPp-148" value="" style="endArrow=classic;startArrow=classic;html=1;rounded=0;fontSize=20;entryX=0;entryY=0.5;entryDx=0;entryDy=0;" edge="1" parent="1" target="5XkQjtwtMUVPwkuHvZPp-126">
          <mxGeometry width="50" height="50" relative="1" as="geometry">
            <mxPoint y="530" as="sourcePoint" />
            <mxPoint x="50" y="480" as="targetPoint" />
          </mxGeometry>
        </mxCell>
        <mxCell id="5XkQjtwtMUVPwkuHvZPp-149" value="" style="endArrow=classic;startArrow=classic;html=1;rounded=0;fontSize=20;entryX=0;entryY=0.5;entryDx=0;entryDy=0;" edge="1" parent="1" target="5XkQjtwtMUVPwkuHvZPp-126">
          <mxGeometry width="50" height="50" relative="1" as="geometry">
            <mxPoint y="700" as="sourcePoint" />
            <mxPoint x="50" y="650" as="targetPoint" />
          </mxGeometry>
        </mxCell>
        <mxCell id="5XkQjtwtMUVPwkuHvZPp-150" value="vpn" style="text;html=1;strokeColor=none;fillColor=none;align=center;verticalAlign=middle;whiteSpace=wrap;rounded=0;" vertex="1" parent="1">
          <mxGeometry x="110" y="547.5" width="60" height="30" as="geometry" />
        </mxCell>
        <mxCell id="5XkQjtwtMUVPwkuHvZPp-151" value="vpn" style="text;html=1;strokeColor=none;fillColor=none;align=center;verticalAlign=middle;whiteSpace=wrap;rounded=0;" vertex="1" parent="1">
          <mxGeometry x="100" y="632.5" width="60" height="30" as="geometry" />
        </mxCell>
        <mxCell id="5XkQjtwtMUVPwkuHvZPp-152" value="a.xxx.com&lt;br&gt;b.xxx.com&lt;br&gt;c.xxx.com" style="text;html=1;strokeColor=none;fillColor=none;align=center;verticalAlign=middle;whiteSpace=wrap;rounded=0;fontSize=20;" vertex="1" parent="1">
          <mxGeometry x="-70" y="438.5" width="60" height="30" as="geometry" />
        </mxCell>
        <mxCell id="5XkQjtwtMUVPwkuHvZPp-153" value="a.xxx.com&lt;br&gt;b.xxx.com&lt;br&gt;c.xxx.com" style="text;html=1;strokeColor=none;fillColor=none;align=center;verticalAlign=middle;whiteSpace=wrap;rounded=0;fontSize=20;" vertex="1" parent="1">
          <mxGeometry x="-70" y="260" width="60" height="30" as="geometry" />
        </mxCell>
        <mxCell id="5XkQjtwtMUVPwkuHvZPp-154" value="a.xxx.com&lt;br&gt;b.xxx.com&lt;br&gt;c.xxx.com" style="text;html=1;strokeColor=none;fillColor=none;align=center;verticalAlign=middle;whiteSpace=wrap;rounded=0;fontSize=20;" vertex="1" parent="1">
          <mxGeometry x="-70" y="620" width="60" height="30" as="geometry" />
        </mxCell>
        <mxCell id="5XkQjtwtMUVPwkuHvZPp-155" value="学校1" style="text;html=1;strokeColor=none;fillColor=none;align=center;verticalAlign=middle;whiteSpace=wrap;rounded=0;fontSize=20;" vertex="1" parent="1">
          <mxGeometry x="-316.5" y="60" width="60" height="30" as="geometry" />
        </mxCell>
        <mxCell id="5XkQjtwtMUVPwkuHvZPp-156" value="学校4" style="text;html=1;strokeColor=none;fillColor=none;align=center;verticalAlign=middle;whiteSpace=wrap;rounded=0;fontSize=20;" vertex="1" parent="1">
          <mxGeometry x="-306.5" y="590" width="60" height="30" as="geometry" />
        </mxCell>
        <mxCell id="5XkQjtwtMUVPwkuHvZPp-157" value="学校3" style="text;html=1;strokeColor=none;fillColor=none;align=center;verticalAlign=middle;whiteSpace=wrap;rounded=0;fontSize=20;" vertex="1" parent="1">
          <mxGeometry x="-316.5" y="413.5" width="60" height="30" as="geometry" />
        </mxCell>
        <mxCell id="5XkQjtwtMUVPwkuHvZPp-158" value="学校2" style="text;html=1;strokeColor=none;fillColor=none;align=center;verticalAlign=middle;whiteSpace=wrap;rounded=0;fontSize=20;" vertex="1" parent="1">
          <mxGeometry x="-316.5" y="240" width="60" height="30" as="geometry" />
        </mxCell>
        <mxCell id="5XkQjtwtMUVPwkuHvZPp-159" value="" style="points=[];aspect=fixed;html=1;align=center;shadow=0;dashed=0;image;image=img/lib/allied_telesis/computer_and_terminals/Tablet.svg;fontSize=20;" vertex="1" parent="1">
          <mxGeometry x="-300" y="110" width="27" height="57" as="geometry" />
        </mxCell>
        <mxCell id="5XkQjtwtMUVPwkuHvZPp-160" value="" style="points=[];aspect=fixed;html=1;align=center;shadow=0;dashed=0;image;image=img/lib/allied_telesis/computer_and_terminals/Tablet.svg;fontSize=20;" vertex="1" parent="1">
          <mxGeometry x="-300" y="171" width="27" height="57" as="geometry" />
        </mxCell>
        <mxCell id="5XkQjtwtMUVPwkuHvZPp-162" value="" style="points=[];aspect=fixed;html=1;align=center;shadow=0;dashed=0;image;image=img/lib/allied_telesis/computer_and_terminals/Tablet.svg;fontSize=20;" vertex="1" parent="1">
          <mxGeometry x="-300" y="280" width="27" height="57" as="geometry" />
        </mxCell>
        <mxCell id="5XkQjtwtMUVPwkuHvZPp-163" value="" style="points=[];aspect=fixed;html=1;align=center;shadow=0;dashed=0;image;image=img/lib/allied_telesis/computer_and_terminals/Tablet.svg;fontSize=20;" vertex="1" parent="1">
          <mxGeometry x="-300" y="341" width="27" height="57" as="geometry" />
        </mxCell>
        <mxCell id="5XkQjtwtMUVPwkuHvZPp-164" value="" style="points=[];aspect=fixed;html=1;align=center;shadow=0;dashed=0;image;image=img/lib/allied_telesis/computer_and_terminals/Tablet.svg;fontSize=20;" vertex="1" parent="1">
          <mxGeometry x="-300" y="458.5" width="27" height="57" as="geometry" />
        </mxCell>
        <mxCell id="5XkQjtwtMUVPwkuHvZPp-165" value="" style="points=[];aspect=fixed;html=1;align=center;shadow=0;dashed=0;image;image=img/lib/allied_telesis/computer_and_terminals/Tablet.svg;fontSize=20;" vertex="1" parent="1">
          <mxGeometry x="-300" y="519.5" width="27" height="57" as="geometry" />
        </mxCell>
        <mxCell id="5XkQjtwtMUVPwkuHvZPp-166" value="" style="points=[];aspect=fixed;html=1;align=center;shadow=0;dashed=0;image;image=img/lib/allied_telesis/computer_and_terminals/Tablet.svg;fontSize=20;" vertex="1" parent="1">
          <mxGeometry x="-300" y="632.5" width="27" height="57" as="geometry" />
        </mxCell>
        <mxCell id="5XkQjtwtMUVPwkuHvZPp-167" value="" style="points=[];aspect=fixed;html=1;align=center;shadow=0;dashed=0;image;image=img/lib/allied_telesis/computer_and_terminals/Tablet.svg;fontSize=20;" vertex="1" parent="1">
          <mxGeometry x="-300" y="693.5" width="27" height="57" as="geometry" />
        </mxCell>
      </root>
    </mxGraphModel>
  </diagram>
</mxfile>
